<?xml version="1.0" encoding="UTF-8" standalone="no"?>
<!-- Created with Inkscape (http://www.inkscape.org/) -->

<svg
   xmlns:dc="http://purl.org/dc/elements/1.1/"
   xmlns:cc="http://creativecommons.org/ns#"
   xmlns:rdf="http://www.w3.org/1999/02/22-rdf-syntax-ns#"
   xmlns:svg="http://www.w3.org/2000/svg"
   xmlns="http://www.w3.org/2000/svg"
   xmlns:inkscape="http://www.inkscape.org/namespaces/inkscape"
   version="1.1"
   width="391.02499"
   height="140.375"
   id="svg2"
   xml:space="preserve"><metadata
     id="metadata8"><rdf:RDF><cc:Work
         rdf:about=""><dc:format>image/svg+xml</dc:format><dc:type
           rdf:resource="http://purl.org/dc/dcmitype/StillImage" /></cc:Work></rdf:RDF></metadata><defs
     id="defs6" /><g
     transform="matrix(1.25,0,0,-1.25,0,140.375)"
     id="g10"><g
       transform="scale(0.1,0.1)"
       id="g12"><path
         d="m 1175.31,294.012 c -3.63,8.59 -22.76,82.211 33.99,175.316 47.41,78.027 129.91,124.422 162.45,96.516 22.28,-19.098 -1.78,-84.309 -73.08,-166.446 -43.05,-49.531 -82.72,-82.375 -123.36,-105.386 m 1933.06,18.715 c -22.7,3.554 -35.9,-28.668 -89.86,-81.012 -30.14,-29.414 -62.23,-59.492 -114.44,-81.504 -76.5,-32.5 -89.82,11.152 -82.11,74.18 8.21,66.73 36.98,152.449 46.58,198.179 3.31,15.821 3.83,37.106 -10.03,58.461 -15.59,24.039 -52.72,36.965 -72.02,14.18 -28.32,-33.578 -40.82,-58.09 -132.07,-172.465 -80.37,-100.797 -183.8,-183.863 -242.05,-138.687 -31.79,24.57 -35.58,74.375 -0.27,143.433 38.46,75.293 127.11,161.77 206.07,219.254 103.38,75.164 160.28,87.371 171.29,90.34 13.93,3.684 24.79,4.141 29.42,-1.57 11.56,-14.348 -19.14,-31.227 -9.24,-64.004 6.83,-22.809 30.76,-32.696 44.92,-33.578 20.2,-1.61 68.24,10.945 78.44,73.464 10.17,62.5 -47.6,173.024 -313.4,71.383 -203.4,-77.75 -409.45,-275.804 -445.29,-436.847 -39.81,-25.586 -89.28,-46.973 -139.77,-43.141 -93.85,7.207 -85.88,121.633 -39.63,209.543 46.86,88.844 129.4,150.269 154.94,173.887 35.69,32.984 70.18,37.437 49.34,95.351 -14.55,40.367 -37.52,42.75 -75.84,31.731 -92.32,-26.692 -200.39,-46.68 -270.04,-53.875 -2.34,44.273 -29.39,87.414 -88.65,87.258 -61.19,-0.09 -124.61,-56.977 -135.92,-128.372 -12.15,-77.539 25.49,-117.136 59.57,-131.609 -70.33,-129.957 -219.94,-289.895 -364.51,-300.812 -40.76,-3.028 -78.17,11.113 -97.36,33.457 96.59,55.429 192.08,129.8 245.68,241.011 70.5,146.301 -0.22,232.258 -102.01,232.258 -114.38,0 -323.58,-116.047 -387.298,-315.566 C 965.715,323.098 961.426,255 977.883,192.652 918.113,171.793 853.047,157.965 791.746,157.965 c -90.508,0 -92.098,69.648 -70.113,116.816 15.445,33.082 139.668,298.309 225.027,478.649 274.52,48.613 642.41,113.32 709.89,125.59 40.96,7.546 90.49,10.132 87.42,44.777 -2.22,26.383 -35.25,25.641 -62.55,24.48 l -658.24,-33.461 c 70,169.914 -94.203,235.664 -121.801,197.854 -10.996,-14.92 -54.66,-102.18 -106.875,-209.436 L 673.262,897.23 C 619.52,893.078 531.746,884.398 519.324,796.695 c -9.707,-68.64 61.211,-108.984 141.367,-94.277 10.493,2 24.121,4.469 40.586,7.398 C 644.348,590.562 593.445,482.73 577.559,447.844 538.367,361.809 497.488,284.234 488.23,211.559 430.254,177.184 366.797,151.598 311.863,153.75 c -90.523,3.418 -87.801,74.668 -68.601,116.695 13.777,30.153 37.492,83.063 68.308,149.274 41.684,89.566 1.66,158.398 -63.355,181.484 -44.121,15.625 -84.641,16.543 -102.246,0.832 C 123.352,581.828 140.52,531.098 121.688,489.797 81.4844,407.121 50.6562,335.512 29.9414,291.277 -15.0703,196.324 -7.375,113.98 39.8945,61.6016 73.5273,24.1406 129.758,0 205.613,0 c 90.5,0 202.27,50 294.524,111.309 3.039,-7.387 6.66,-14.7074 10.761,-21.9574 C 539.773,39.082 600.945,4.26172 685.527,4.26172 778.262,4.26172 911.746,50 1016.62,109.059 c 38.16,-52.477 101.02,-89.6293 196.2,-91.1293 274.81,-4.1406 491.96,256.9493 578.22,463.8203 76.04,10.871 170.57,48.512 170.57,48.512 0,0 -244.1,-225.172 -189.76,-402.063 21.54,-70.2693 94.68,-128.769312 199.35,-118.49978 84.02,8.15238 156.66,55.81248 212.85,108.42178 37.25,-92.7694 133.17,-107.3593 197.68,-98.0819 160.6,23.2421 267.52,181.9489 267.52,181.9489 0,0 -16.72,-61.054 5.68,-114.156 16.19,-38.5234 54.88,-74.2031 127.03,-74.2031 162.64,0 290.59,166.0551 316.94,206.8361 42.65,66.601 32.38,88.726 9.47,92.262"
         inkscape:connector-curvature="0"
         id="path14"
         style="fill:#ffffff;fill-opacity:1;fill-rule:evenodd;stroke:none" /><path
         d="m 295.461,667.328 c 67.684,0 134.629,52.805 149.351,118.047 14.805,65.25 -28.132,118.129 -95.835,118.129 -67.715,0 -134.747,-52.879 -149.457,-118.129 -14.825,-65.242 28.207,-118.047 95.941,-118.047"
         inkscape:connector-curvature="0"
         id="path16"
         style="fill:#ffffff;fill-opacity:1;fill-rule:evenodd;stroke:none" /></g></g></svg>